<?xml version="1.0" standalone="no"?>
<!DOCTYPE svg PUBLIC "-//W3C//DTD SVG 20010904//EN"
 "http://www.w3.org/TR/2001/REC-SVG-20010904/DTD/svg10.dtd">
<svg version="1.0" xmlns="http://www.w3.org/2000/svg"
 width="3372.000000pt" height="3371.000000pt" viewBox="0 0 3372.000000 3371.000000"
 preserveAspectRatio="xMidYMid meet">

<g transform="translate(0.000000,3371.000000) scale(0.100000,-0.100000)"
fill="#000000" stroke="none">
<path d="M8910 32443 c0 -5 3506 -7025 7792 -15600 l7792 -15593 152 0 c86 0
155 4 159 9 3 6 -3502 7026 -7790 15600 l-7795 15591 -155 0 c-85 0 -155 -3
-155 -7z"/>
<path d="M14138 19063 c-12 -27 -397 -894 -856 -1928 -459 -1034 -837 -1888
-839 -1898 -5 -16 5 -17 152 -15 l157 3 276 625 277 625 1090 5 c736 3 1090 8
1090 15 0 6 -27 70 -60 142 l-60 132 -964 1 c-766 0 -962 3 -958 13 3 6 206
464 452 1017 l447 1005 -78 153 c-43 83 -85 152 -92 152 -7 0 -23 -21 -34 -47z"/>
<path d="M17280 17100 c0 -6 34 -78 75 -160 l75 -150 1730 0 1730 0 0 160 0
160 -1805 0 c-1212 0 -1805 -3 -1805 -10z"/>
<path d="M18450 14760 c0 -6 29 -69 65 -140 l65 -130 1155 0 1155 0 0 140 0
140 -1220 0 c-818 0 -1220 -3 -1220 -10z"/>
<path d="M19090 13485 c0 -8 28 -71 62 -140 l63 -125 837 0 838 0 0 140 0 140
-900 0 c-791 0 -900 -2 -900 -15z"/>
</g>
</svg>
